<svg id="eDxXeKaTcwv1" xmlns="http://www.w3.org/2000/svg" xmlns:xlink="http://www.w3.org/1999/xlink" viewBox="0 0 500 500" shape-rendering="geometricPrecision" text-rendering="geometricPrecision">
<style><![CDATA[
#eDxXeKaTcwv6_to {animation: eDxXeKaTcwv6_to__to 4000ms linear infinite normal forwards}@keyframes eDxXeKaTcwv6_to__to { 0% {transform: translate(249.950018px,452.400009px)} 7.5% {transform: translate(249.950018px,452.400009px);animation-timing-function: cubic-bezier(0.42,0,0.58,1)} 20% {transform: translate(249.950018px,539.200009px)} 82.5% {transform: translate(249.950018px,539.200009px)} 95% {transform: translate(249.950018px,452.400009px)} 100% {transform: translate(249.950018px,452.400009px)}} #eDxXeKaTcwv7_to {animation: eDxXeKaTcwv7_to__to 4000ms linear infinite normal forwards}@keyframes eDxXeKaTcwv7_to__to { 0% {transform: translate(249.950018px,539.200012px)} 20% {transform: translate(249.950018px,539.200012px);animation-timing-function: cubic-bezier(0.42,0,0.58,1)} 32.5% {transform: translate(249.950019px,455.291575px)} 70% {transform: translate(249.950019px,455.291575px)} 82.5% {transform: translate(249.950018px,539.200012px)} 100% {transform: translate(249.950018px,539.200012px)}} #eDxXeKaTcwv9_to {animation: eDxXeKaTcwv9_to__to 4000ms linear infinite normal forwards}@keyframes eDxXeKaTcwv9_to__to { 0% {transform: translate(239.849995px,211.899998px)} 25.25% {transform: translate(239.849995px,211.899998px)} 32.5% {transform: translate(239.849995px,165.450685px)} 40% {transform: translate(239.849995px,211.899998px)} 67% {transform: translate(239.849995px,211.899998px)} 74.25% {transform: translate(239.849995px,165.450685px)} 81.75% {transform: translate(239.849995px,211.899998px)} 100% {transform: translate(239.849995px,211.899998px)}}
]]></style>
<path d="M53.6,19.8h392.9c17.4,0,31.6,11.6,31.6,26v336.2c0,14.3-14.1,26-31.6,26h-392.9C36.1,408,22,396.4,22,382v-336.2c0-14.3,14.1-26,31.6-26Z" fill="#eaeaea"/><ellipse rx="11.9" ry="11.9" transform="translate(54.3 51.7)" fill="#e4514f"/><ellipse rx="11.9" ry="11.9" transform="translate(86.3 51.7)" fill="#f4c025"/><ellipse rx="11.9" ry="11.9" transform="translate(117.3 51.7)" fill="#3ec930"/><g id="eDxXeKaTcwv6_to" transform="translate(249.950018,452.400009)"><path d="M28.1,419.2h443.7c8.9,0,16.2,6.7,16.2,15v36.4c0,8.3-7.2,15-16.2,15h-443.7c-8.9,0-16.2-6.7-16.2-15v-36.4c.1-8.3,7.3-15,16.2-15Z" transform="translate(-249.950018,-452.400009)" fill="#d2dbed"/></g><g id="eDxXeKaTcwv7_to" transform="translate(249.950018,539.200012)"><path d="M28.1,506h443.7c8.9,0,16.2,6.7,16.2,15v36.4c0,8.3-7.2,15-16.2,15h-443.7c-8.9,0-16.2-6.7-16.2-15v-36.4c.1-8.3,7.3-15,16.2-15Z" transform="translate(-249.950018,-539.200012)" fill="#222323"/></g><g><g id="eDxXeKaTcwv9_to" transform="translate(239.849995,211.899998)"><path d="M169.4,202.8c0,3.1,0,5.6,0,8.6c3.1,0,6,0,9.2,0c0,3.2,0,6.1,0,9.1c5.8,0,11.2,0,17,0c0-2.8,0-5.6,0-8.8c2.9,0,5.5,0,8.6,0c0-3,0-5.7,0-8.7c4.7,0,8.9,0,13.5,0c0-2.9,0-5.5,0-8.5c4.4,0,8.4,0,12.8,0c0-2.9,0-5.5,0-8.6c3,0,5.7,0,8.7,0c0-19.2,0-37.9,0-56.9c2.9,0,5.5,0,8.5,0c0-2.9,0-5.5,0-8.4c23.4,0,46.5,0,69.9,0c0,2.7,0,5.3,0,8.2c2.9,0,5.5,0,8.4,0c0,13.1,0,25.9,0,39.1-14.2,0-28.4,0-42.9,0c0,3.2,0,6.1,0,9.3c8.6,0,17.1,0,25.8,0c0,2.9,0,5.5,0,8.5-11.4,0-22.8,0-34.4,0c0,5.8,0,11.2,0,17.1c5.6,0,11.4,0,17.3,0c0,6.1,0,11.8,0,17.6-2.9,0-5.7,0-8.9,0c0-2.8,0-5.6,0-8.7-2.9,0-5.5,0-8.6,0c0,9.9,0,19.9,0,30.3-3,0-5.6,0-8.6,0c0,4.6,0,8.8,0,13.4-2.9,0-5.5,0-8.6,0c0,3,0,5.7,0,8.7-3.2,0-6.1,0-9,0c0,11.7,0,23.1,0,34.8c2.9,0,5.7,0,8.7,0c0,2.9,0,5.5,0,8.4-5.7,0-11.4,0-17.5,0c0-8.6,0-17.1,0-26-2.9,0-5.5,0-8.5,0c0-2.9,0-5.5,0-8.4-2.9,0-5.5,0-8.6,0c0,2.6,0,5.3,0,8.3-3,0-5.6,0-8.6,0c0,2.9,0,5.5,0,8.5-3.1,0-5.9,0-9,0c0,3.1,0,5.9,0,9.2c2.8,0,5.7,0,8.7,0c0,3,0,5.6,0,8.5-5.8,0-11.4,0-17.4,0-.1-1.1-.2-2.2-.2-3.3c0-9.5,0-19-.1-28.4c0-1.4-.7-2.9-1.2-4.2-.5-1.4-1-3-2.1-3.9-1.6-1.4-3.5-2.8-5.4-3.3-2.5-.6-5.2-.1-8.2-.1c0-2.8,0-5.4,0-8.5-3.2,0-6.1,0-9.3,0c0-3.2,0-6.1,0-9.2-2.9,0-5.5,0-8.5,0c0-2.9,0-5.5,0-8.5-2.9,0-5.5,0-8.4,0c0-17.5,0-34.6,0-52c2.7,0,5.3,0,8.2,0c0,5.6,0,11,0,16.8c3.1,0,5.6,0,8.7,0ZM257.1,142c2.9,0,5.6,0,8.2,0c0-3.1,0-5.9,0-8.7-2.8,0-5.4,0-8.2,0c0,3,0,5.7,0,8.7Z" transform="translate(-239.249992,-213.999992)" fill="#535353"/></g><path d="M265.6,276.7c0-1.3,0-2.4,0-3.8c40.6,0,81.2,0,122,0c0,1.2,0,2.4,0,3.8-40.5,0-81.1,0-122,0Z" fill="#535353"/><path d="M109,276.6c0-1.3,0-2.4,0-3.8c23.1,0,46.1,0,69.4,0c0,1.2,0,2.3,0,3.8-23,0-46,0-69.4,0Z" fill="#535353"/><path d="M152.2,290c0,1.5,0,2.9,0,4.5-5.6,0-11.1,0-16.7,0c0-1.5,0-2.8,0-4.5c5.4,0,11,0,16.7,0Z" fill="#535353"/><path d="M335.1,303.5c0,1.3,0,2.4,0,3.7-5.7,0-11.4,0-17.4,0c0-1.2,0-2.3,0-3.7c5.7,0,11.4,0,17.4,0Z" fill="#535353"/><path d="M125.9,303.5c0,1.3,0,2.4,0,3.8-5.6,0-11.1,0-16.8,0c0-1.2,0-2.3,0-3.8c5.5,0,11,0,16.8,0Z" fill="#535353"/><path d="M348.2,289.5c0-1.3,0-2.4,0-3.8c4.1,0,8.2,0,12.5,0c0,1.2,0,2.3,0,3.8-4,0-8.1,0-12.5,0Z" fill="#535353"/><path d="M178.5,303.4c0,1.4,0,2.5,0,3.8-3,0-5.8,0-8.9,0c0-1.3,0-2.4,0-3.8c2.9,0,5.8,0,8.9,0Z" fill="#535353"/><path d="M291.6,303.1c-1.5,0-2.8,0-4.4,0c0-1.3,0-2.5,0-4c1.4,0,2.7,0,4.4,0c0,1.3,0,2.5,0,4Z" fill="#535353"/></g></svg>

