<svg id="Layer_1" data-name="Layer 1" xmlns="http://www.w3.org/2000/svg" viewBox="0 0 300 300">
  <defs>
    <style>
      .cls-1 {
        fill: #eaeaea;
        stroke: #a0a0a0;
        stroke-miterlimit: 10;
        stroke-width: 2px;
        opacity: 0.6;
      }

      .cls-2 {
        fill: #d09cfa;
      }

      .cls-3 {
        fill: #a555ec;
      }

      .cls-4 {
        fill: #ffffd0;
      }

      .cls-5 {
        fill: #fff;
      }
    </style>
  </defs>
  <rect class="cls-1" x="12.44" y="207.16" width="275.12" height="64.98" rx="15"/>
  <path class="cls-2" d="M89.8,176.94a36.21,36.21,0,0,0-1.3-3.46c-3.31-6.5-6.8-12.91-10-19.48a92.57,92.57,0,0,1-4.25-11.23c-2.14-6.57-4.6-13.08-6-19.81a106.68,106.68,0,0,1,0-42.9,64.7,64.7,0,0,1,9.62-22.85c7.45-11.3,17.3-20.1,30.21-25,4.63-1.75,9.21-3.71,14-5.14,3.82-1.16,7.85-1.62,11.76-2.5a84,84,0,0,1,24.65-1.46c12.64.93,25,3.25,36.67,8.6a87.77,87.77,0,0,1,14.18,7.69C217.72,45.24,224,52.89,229,61.69c6.36,11.14,8.9,23.24,8.95,36,0,9.14.26,18.33-2.31,27.22a211.49,211.49,0,0,1-7.18,21.81c-3.75,9.1-8.28,17.87-12.5,26.78-1.29,2.74-1.08,3,1.94,2.91,6.33-.26,11.67,2.07,16.3,6.29.6.55,1.47,1.25,2.14,1.17.5-.06,1-1.21,1.27-2,2.15-5.83,1.57-11.79.76-17.75-.27-1.95.07-3.52,1.92-4.43a3.62,3.62,0,0,1,4.75,1.07A92.38,92.38,0,0,1,252.21,172c3.82,7.45,4.62,15.57,3.45,23.72s-5,15.23-10.42,21.37c-4.17,4.71-8.48,9.3-14.4,11.93a61.73,61.73,0,0,1-29,5.38q-6.12-.34-12.22-.95a11.87,11.87,0,0,1-3.1-1c-3.14-1.24-6-.92-8.52,1.45-2.07,1.92-3.8,3.83-3.66,7,.11,2.34-1.59,4-3.43,5.33a17,17,0,0,1-9.37,3.26c-2.26.06-4.54.07-6.79.28-5.52.52-10.47-1.28-15.31-3.6s-9-5.13-12-9.6c-.6-.91-1.09-1.9-1.75-2.76-.86-1.12-1.82-1-2.32.29a10.93,10.93,0,0,0-.77,3.38c-.38,6.19,1.19,12,3.27,17.77a18.48,18.48,0,0,1,1.05,5.3c.16,3.83-2.16,5.46-5.84,4.26-1.87-.61-3.7-1.36-5.52-2.11-7.93-3.27-15.5-7.19-21.65-13.28a66.1,66.1,0,0,1-12-15.49,7.35,7.35,0,0,0-3.36-2.82c-4-1.82-8.17-3.18-11.58-6.09-8.82-7.52-15.85-16.31-18.16-27.91-1.74-8.71-.91-17.33,3.39-25.36,2-3.78,3.53-7.85,6.82-10.87,1.59-1.46,3.28-2.13,5.12-1s2,2.63,1.71,4.87c-.82,5.46-1.37,11,.53,16.46.76,2.14,1,2.05,2.83.89,2.83-1.77,5.68-3.71,8.79-4.75,2.52-.85,5.44-.53,8.19-.63A29.37,29.37,0,0,1,89.8,176.94ZM170.9,232l1,.38c.51-.56,1-1.13,1.53-1.67,3.79-3.85,8.18-5.32,13.56-3.88a97.13,97.13,0,0,0,14.48,3.21c11.81,1.28,23-1,32.48-8.46,13.52-10.58,19.57-24.25,15.67-41.51a28,28,0,0,0-5.09-10.65,13.09,13.09,0,0,0-.23,2.82c-.18,9.16-2.58,17.42-9.49,23.95-6.48,6.13-14.3,9.24-23,10.37-4.73.61-9-.72-11.61-5s-2.94-8.29.07-12.84C211.89,171.38,221.58,153,227.85,133a100.19,100.19,0,0,0,2.41-53,59.15,59.15,0,0,0-25.89-37.42c-14.48-9.6-30.76-13.67-47.86-14.62A98.83,98.83,0,0,0,114.44,35c-15.53,6.12-28,15.88-35.57,31.18A70,70,0,0,0,72,93.6c-.58,10.62-.33,21.17,2.28,31.58,4.27,17.08,11.54,32.89,20.12,48.16,2.07,3.67,2.13,3.74,6.23,3,13.66-2.6,26.81,6.94,30.09,18.54.79,2.76,1.27,5.61,1.9,8.48a2.88,2.88,0,0,0,.59-.33c4.25-4.53,8.37-9.18,12.76-13.55,4.94-4.92,10.25-9.23,17.2-11.32,13.64-4.1,25.43.81,31,13.91,2.34,5.47,3.73,11.36,5.28,17.13a33.32,33.32,0,0,1,.88,7.8c.07,2.85-2.25,6.4-4.18,7-2.37.72-4.72-.47-6.83-3.65-1.25-1.89-2.15-4-3.48-5.83a24.1,24.1,0,0,0-4.48-5c-2.77-2.14-4.82-1.69-6.42,1.46a25,25,0,0,0-2.23,7C171.93,222.65,171.48,227.35,170.9,232ZM119,234l1-.16c.61-1.7,1.21-3.39,1.82-5.08,3.19-9,5-18.09,3.91-27.7-1.28-11.75-11.67-20-22.07-18.9a63.29,63.29,0,0,0-7.13,1.11c-10.2,2.32-16,9.45-15.94,19.88,0,3.93.74,7.85,1.1,11.77a45.21,45.21,0,0,0,7.38,20.39c7.06,11,17.29,18,29.24,22.76.89.35,1.83.56,3.21,1-.36-1.13-.53-1.74-.75-2.33A58.84,58.84,0,0,1,117,239.51a13.53,13.53,0,0,0-1.36-5.14,39.9,39.9,0,0,1-4.25-16.19,7.68,7.68,0,0,1,4.13-7.41,3.12,3.12,0,0,1,2.84,0c1.22,1,.1,2-.81,2.59-2.63,1.65-3.18,4-2.68,6.85a32.76,32.76,0,0,0,.76,4.09C116.64,227.57,117.84,230.8,119,234Zm74.51-18.71.47-.15a8.07,8.07,0,0,0,0-1.84c-1.72-6.93-2.87-14.05-6.18-20.49-4.19-8.16-10.28-11.18-19.3-9.76a29.29,29.29,0,0,0-14.06,6.24c-8.81,7.14-16.5,15.36-21.77,25.5-3.15,6.06-5.25,12.64-.5,18.79a34.15,34.15,0,0,0,9.34,8.39c5.73,3.41,12.33,3.37,18.77,2.41a35.78,35.78,0,0,0,7.79-2.58c1.2-.48,1.28-1.27.37-2.55a14.21,14.21,0,0,1-2.72-5.81c-1.25-8.52.46-16.77,3.47-24.68a9.8,9.8,0,0,1,14.27-5.31,19,19,0,0,1,8.06,8.12C192.13,212.87,192.83,214.09,193.5,215.33ZM60.14,168.88l-.72-.07c-5.64,10-8.45,20.51-4.71,32S67,219.1,76.93,224.61a5.34,5.34,0,0,0,0-2.12c-.88-6.64-1.85-13.27-2.55-19.93a4.78,4.78,0,0,0-2-3.83,29.66,29.66,0,0,1-12.24-21.86C59.94,174.23,60.14,171.54,60.14,168.88Zm150.59,32c1.69-.39,3.39-.74,5.08-1.17a32.46,32.46,0,0,0,15.67-8.7c1.46-1.5,1.36-2.58-.14-3.73a53.77,53.77,0,0,0-5.12-3.72c-6.36-3.79-15.2-1.59-18.14,4.79-.75,1.64-2,3-2.88,4.64a4.92,4.92,0,0,0-.62,2.83C205.13,199.21,207,200.65,210.73,200.84ZM84,181.74c-3.26-.61-10.92,2.78-12.63,5.88a1.58,1.58,0,0,0,0,1.39c1.28,1.52,2.66,2.94,3.78,4.17Z"/>
  <path class="cls-3" d="M119,234c-1.15-3.24-2.35-6.47-3.41-9.74a32.76,32.76,0,0,1-.76-4.09c-.5-2.83.05-5.2,2.68-6.85.91-.57,2-1.55.81-2.59a3.12,3.12,0,0,0-2.84,0,7.68,7.68,0,0,0-4.13,7.41,39.9,39.9,0,0,0,4.25,16.19,13.53,13.53,0,0,1,1.36,5.14,58.84,58.84,0,0,0,3.85,17.24c.22.59.39,1.2.75,2.33-1.38-.41-2.32-.62-3.21-1-12-4.75-22.18-11.75-29.24-22.76A45.21,45.21,0,0,1,81.72,215c-.36-3.92-1.08-7.84-1.1-11.77-.07-10.43,5.74-17.56,15.94-19.88a63.29,63.29,0,0,1,7.13-1.11c10.4-1.15,20.79,7.15,22.07,18.9,1,9.61-.72,18.73-3.91,27.7-.61,1.69-1.21,3.38-1.82,5.08Z"/>
  <path class="cls-3" d="M193.5,215.33c-.67-1.24-1.37-2.46-2-3.72a19,19,0,0,0-8.06-8.12,9.8,9.8,0,0,0-14.27,5.31c-3,7.91-4.72,16.16-3.47,24.68a14.21,14.21,0,0,0,2.72,5.81c.91,1.28.83,2.07-.37,2.55a35.78,35.78,0,0,1-7.79,2.58c-6.44,1-13,1-18.77-2.41a34.15,34.15,0,0,1-9.34-8.39c-4.75-6.15-2.65-12.73.5-18.79,5.27-10.14,13-18.36,21.77-25.5a29.29,29.29,0,0,1,14.06-6.24c9-1.42,15.11,1.6,19.3,9.76,3.31,6.44,4.46,13.56,6.18,20.49a8.07,8.07,0,0,1,0,1.84Z"/>
  <path class="cls-3" d="M60.14,168.88c0,2.66-.2,5.35,0,8a29.66,29.66,0,0,0,12.24,21.86,4.78,4.78,0,0,1,2,3.83c.7,6.66,1.67,13.29,2.55,19.93a5.34,5.34,0,0,1,0,2.12c-10-5.51-18.52-12.35-22.22-23.76s-.93-22,4.71-32Z"/>
  <path class="cls-4" d="M210.73,200.84c-3.69-.19-5.6-1.63-6.15-5.06a4.92,4.92,0,0,1,.62-2.83c.85-1.61,2.13-3,2.88-4.64,2.94-6.38,11.78-8.58,18.14-4.79a53.77,53.77,0,0,1,5.12,3.72c1.5,1.15,1.6,2.23.14,3.73a32.46,32.46,0,0,1-15.67,8.7C214.12,200.1,212.42,200.45,210.73,200.84Z"/>
  <path class="cls-4" d="M71.3,189a1.58,1.58,0,0,1,0-1.39c1.71-3.1,9.37-6.49,12.63-5.88l-8.87,11.44C74,192,72.58,190.53,71.3,189"/>
  <path d="M152.21,144.27c.52,1,.86,1.69,1.22,2.37a42.9,42.9,0,0,0,2.84,5.16c1.9,2.58,4.27,2.69,6.47.38a37,37,0,0,0,3.32-4.33c.73-1,1.52-2,2.84-1.14s.83,2.1.11,3.07a42.36,42.36,0,0,1-4.54,5.58c-3.14,3-7.39,2.6-10.32-.6-.78-.85-1.5-1.75-2.4-2.81-.75.85-1.35,1.57-2,2.26-3,3.26-7.17,3.53-10.24.41a27.12,27.12,0,0,1-3.95-5.47c-.36-.63.18-1.77.3-2.68.91.34,2.06.45,2.66,1.08,1.09,1.15,1.74,2.7,2.76,3.92,2,2.44,4.27,2.46,6.19-.09,1.4-1.85,2.43-4,3.65-6A10.76,10.76,0,0,1,152.21,144.27Z"/>
  <path d="M194.63,126.75c4.31.12,8.38,1.07,11.68,3.84a21.11,21.11,0,0,1,4.1,5.51c.3.49-.42,1.59-.67,2.41-.79-.32-1.92-.41-2.31-1a15.88,15.88,0,0,0-21.77-4.88c-1.57,1-2.71,2.73-3.87,4.27-.72,1-1.22,2.23-2.65,1.61s-1.22-1.9-.63-3.15c2.26-4.71,6.31-6.93,11.14-8C191.28,127,193,127,194.63,126.75Z"/>
  <path class="cls-5" d="M111.5,137c-.66-1.11-1.32-1.72-1.28-2.29s1-1.34,1.33-1.25a2.22,2.22,0,0,1,1.5,1.4C113.13,135.31,112.3,135.93,111.5,137Z"/>
  <g>
    <path class="cls-3" d="M170.9,232c.58-4.68,1-9.38,1.81-14a25,25,0,0,1,2.23-7c1.6-3.15,3.65-3.6,6.42-1.46a24.1,24.1,0,0,1,4.48,5c1.33,1.82,2.23,3.94,3.48,5.83,2.11,3.18,4.46,4.37,6.83,3.65,1.93-.58,4.25-4.13,4.18-7a33.32,33.32,0,0,0-.88-7.8c-1.55-5.77-2.94-11.66-5.28-17.13-5.6-13.1-17.39-18-31-13.91-6.95,2.09-12.26,6.4-17.2,11.32-4.39,4.37-8.51,9-12.76,13.55a2.88,2.88,0,0,1-.59.33c-.63-2.87-1.11-5.72-1.9-8.48-3.28-11.6-16.43-21.14-30.09-18.54-4.1.78-4.16.71-6.23-3-8.58-15.27-15.85-31.08-20.12-48.16-2.61-10.41-2.86-21-2.28-31.58a70,70,0,0,1,6.9-27.43c7.52-15.3,20-25.06,35.57-31.18a98.83,98.83,0,0,1,42.07-7.07c17.1.95,33.38,5,47.86,14.62A59.15,59.15,0,0,1,230.26,80a100.19,100.19,0,0,1-2.41,53c-6.27,20-16,38.41-27.51,55.83-3,4.55-2.67,8.67-.07,12.84s6.88,5.56,11.61,5c8.67-1.13,16.49-4.24,23-10.37,6.91-6.53,9.31-14.79,9.49-23.95a13.09,13.09,0,0,1,.23-2.82,28,28,0,0,1,5.09,10.65c3.9,17.26-2.15,30.93-15.67,41.51-9.51,7.45-20.67,9.74-32.48,8.46A97.13,97.13,0,0,1,187,226.86c-5.38-1.44-9.77,0-13.56,3.88-.53.54-1,1.11-1.53,1.67Zm-45.59-96.2a14.37,14.37,0,0,0-14.46-14.46,14.66,14.66,0,0,0-14.64,13.68c-.35,7.91,6.74,14.68,14.53,14.66C118.68,149.69,125.28,143.46,125.31,135.83Zm26.9,8.44a10.76,10.76,0,0,0-1.06,1.15c-1.22,2-2.25,4.11-3.65,6-1.92,2.55-4.16,2.53-6.19.09-1-1.22-1.67-2.77-2.76-3.92-.6-.63-1.75-.74-2.66-1.08-.12.91-.66,2.05-.3,2.68a27.12,27.12,0,0,0,3.95,5.47c3.07,3.12,7.26,2.85,10.24-.41.62-.69,1.22-1.41,2-2.26.9,1.06,1.62,2,2.4,2.81,2.93,3.2,7.18,3.56,10.32.6a42.36,42.36,0,0,0,4.54-5.58c.72-1,1.2-2.22-.11-3.07s-2.11.1-2.84,1.14a37,37,0,0,1-3.32,4.33c-2.2,2.31-4.57,2.2-6.47-.38a42.9,42.9,0,0,1-2.84-5.16C153.07,146,152.73,145.28,152.21,144.27Zm42.42-17.52c-1.66.2-3.35.27-5,.63-4.83,1.06-8.88,3.28-11.14,8-.59,1.25-.89,2.5.63,3.15s1.93-.65,2.65-1.61c1.16-1.54,2.3-3.29,3.87-4.27a15.88,15.88,0,0,1,21.77,4.88c.39.58,1.52.67,2.31,1,.25-.82,1-1.92.67-2.41a21.11,21.11,0,0,0-4.1-5.51C203,127.82,198.94,126.87,194.63,126.75Z"/>
    <rect class="cls-3" x="87.36" y="107.66" width="41.9" height="46.84"/>
    <rect class="cls-3" x="169.72" y="112.36" width="44.9" height="29.76"/>
  </g>
  <path d="M118.94,112.36c4.3.11,8.38,1.07,11.67,3.84a21.26,21.26,0,0,1,4.11,5.5c.3.49-.42,1.59-.67,2.41-.79-.32-1.93-.4-2.32-1A15.88,15.88,0,0,0,110,118.24c-1.57,1-2.72,2.74-3.88,4.28-.72,1-1.21,2.22-2.64,1.61s-1.23-1.91-.63-3.16c2.25-4.7,6.3-6.92,11.13-8C115.58,112.62,117.27,112.56,118.94,112.36Z"/>
  <path d="M186.33,112.36c4.3.11,8.38,1.07,11.67,3.84a21.26,21.26,0,0,1,4.11,5.5c.3.49-.42,1.59-.67,2.41-.79-.32-1.93-.4-2.32-1a15.88,15.88,0,0,0-21.76-4.88c-1.57,1-2.72,2.74-3.87,4.28-.73,1-1.22,2.22-2.65,1.61s-1.23-1.91-.63-3.16c2.26-4.7,6.3-6.92,11.14-8C183,112.62,184.67,112.56,186.33,112.36Z"/>
</svg>
